<?xml version="1.0" standalone="no"?>
<!DOCTYPE svg PUBLIC "-//W3C//DTD SVG 20010904//EN"
 "http://www.w3.org/TR/2001/REC-SVG-20010904/DTD/svg10.dtd">
<svg version="1.0" xmlns="http://www.w3.org/2000/svg"
 width="60.000000pt" height="60.000000pt" viewBox="0 0 712.000000 712.000000"
 preserveAspectRatio="xMidYMid meet">

<g transform="translate(0.000000,512.000000) scale(0.100000,-0.100000)"
fill="#000000" stroke="none">
<path d="M2495 5104 c-16 -9 -275 -261 -575 -560 l-545 -544 -630 -2 c-609 -3
-631 -4 -664 -23 -19 -11 -43 -33 -55 -48 l-21 -28 -3 -1890 c-2 -1879 -2
-1890 18 -1929 13 -26 34 -47 60 -60 39 -20 53 -20 2480 -20 2427 0 2441 0
2480 20 26 13 47 34 60 60 20 39 20 50 18 1929 l-3 1890 -21 28 c-12 15 -36
37 -55 48 -33 19 -55 20 -664 23 l-630 2 -545 544 c-300 299 -559 551 -577
560 -40 20 -89 20 -128 0z m445 -729 l375 -375 -755 0 -755 0 375 375 c206
206 377 375 380 375 3 0 174 -169 380 -375z m1660 -682 c0 -5 -111 -119 -247
-255 l-248 -248 -1545 0 -1545 0 -247 247 c-137 137 -248 251 -248 255 0 5
918 8 2040 8 1122 0 2040 -3 2040 -7z m-3800 -1693 l0 -985 -250 -250 -250
-250 0 1485 0 1485 250 -250 250 -250 0 -985z m4020 -2 l0 -1483 -250 250
-250 250 0 985 0 985 247 247 c137 137 249 248 250 248 2 0 3 -667 3 -1482z
m-800 105 l0 -788 -362 362 c-387 387 -404 400 -482 388 -36 -6 -58 -24 -169
-133 l-127 -126 -288 286 c-246 245 -292 287 -324 293 -81 15 -78 18 -640
-543 l-528 -527 0 788 0 787 1460 0 1460 0 0 -787z m-1563 -295 l213 -213
-247 -247 -248 -248 -430 0 -430 0 460 460 c253 253 462 460 465 460 3 0 100
-96 217 -212z m1048 -408 l300 -300 -598 0 c-328 0 -597 3 -597 7 0 9 582 593
590 593 3 0 140 -135 305 -300z m850 -850 l250 -250 -2045 0 -2045 0 250 250
250 250 1545 0 1545 0 250 -250z"/>
</g>
</svg>
