<?xml version="1.0" standalone="no"?>
<!DOCTYPE svg PUBLIC "-//W3C//DTD SVG 20010904//EN"
 "http://www.w3.org/TR/2001/REC-SVG-20010904/DTD/svg10.dtd">
<svg version="1.0" xmlns="http://www.w3.org/2000/svg"
  viewBox="0 0 50 50" width="30px" height="50px"> 
 preserveAspectRatio="xMidYMid meet">
<metadata>
Created by potrace 1.16, written by Peter Selinger 2001-2019
</metadata>
<g transform="translate(0.000000,24.000000) scale(0.100000,-0.100000)"
fill="#000000" stroke="none">
<path d="M42 198 c-16 -16 -16 -140 0 -156 16 -16 140 -16 156 0 16 16 16 140
0 156 -16 16 -140 16 -156 0z m118 -23 c0 -8 7 -15 15 -15 21 0 20 -73 -1 -94
-20 -21 -88 -21 -108 0 -21 20 -21 88 0 108 21 21 94 22 94 1z"/>
</g>
</svg>
