<?xml version="1.0" standalone="no"?>
<!DOCTYPE svg PUBLIC "-//W3C//DTD SVG 20010904//EN"
 "http://www.w3.org/TR/2001/REC-SVG-20010904/DTD/svg10.dtd">
<svg version="1.0" xmlns="http://www.w3.org/2000/svg"
 width="50.000000pt" height="50.000000pt" viewBox="0 0 1550.000000 1550.000000"
 preserveAspectRatio="xMidYMid meet">

<g transform="translate(0.000000,1600.000000) scale(0.100000,-0.100000)"
fill="#000000" stroke="none">
<path d="M3400 13454 c-399 -39 -698 -122 -1020 -283 -679 -340 -1174 -948
-1356 -1666 -39 -151 -63 -340 -71 -538 l-6 -178 -81 -41 c-653 -328 -995
-1076 -815 -1777 50 -193 133 -369 259 -543 64 -89 240 -264 338 -336 82 -61
237 -153 279 -166 l22 -7 4 -1302 c3 -1410 1 -1355 58 -1597 74 -317 244 -659
452 -908 83 -99 272 -282 365 -352 l72 -55 0 -670 c0 -376 4 -695 10 -728 18
-112 87 -204 188 -250 47 -22 50 -22 757 -22 l710 0 56 26 c68 32 120 82 157
152 l27 52 3 518 3 517 4124 0 4125 0 0 -480 c0 -309 4 -498 11 -532 21 -100
92 -187 188 -232 46 -21 52 -21 756 -21 l710 0 55 26 c70 33 126 89 159 159
l26 55 5 716 5 717 60 45 c267 200 509 494 654 791 101 205 157 377 203 616
22 114 22 124 25 1431 l4 1315 57 28 c262 128 513 354 667 600 90 144 157 313
198 494 29 133 31 460 4 597 -38 184 -113 377 -207 530 -148 243 -403 476
-646 594 l-71 34 -6 196 c-4 108 -13 241 -22 296 -85 549 -334 1029 -736 1420
-408 398 -897 640 -1485 737 l-139 23 -4550 1 c-2502 0 -4566 -1 -4585 -2z
m9190 -652 c243 -41 425 -99 632 -203 622 -311 1030 -923 1060 -1590 l4 -86
-105 -7 c-206 -13 -401 -66 -586 -159 -157 -78 -267 -159 -406 -297 -219 -219
-362 -470 -438 -768 -49 -189 -51 -234 -51 -1114 l0 -827 -1977 -4 c-1768 -3
-1986 -5 -2055 -19 -250 -52 -492 -181 -667 -355 l-63 -63 -84 80 c-216 204
-480 325 -768 350 -68 6 -849 10 -2013 10 l-1902 0 -4 908 -3 907 -26 105
c-82 329 -226 582 -455 801 -278 266 -617 416 -1007 445 l-89 7 6 111 c18 324
122 627 312 911 341 510 926 837 1565 875 69 4 2121 6 4560 5 l4435 -1 125
-22z m-10820 -2533 c210 -38 407 -153 548 -319 76 -90 162 -258 194 -380 l22
-85 6 -1740 5 -1740 23 -80 c96 -343 354 -598 697 -691 68 -19 188 -19 4675
-19 l4605 0 79 23 c169 49 303 128 427 251 121 121 199 252 251 422 l23 74 5
1715 c6 1593 7 1720 24 1789 51 213 131 365 270 510 88 91 170 150 278 200
147 69 307 96 480 80 609 -56 1003 -672 803 -1255 -45 -131 -114 -241 -215
-344 -128 -131 -257 -209 -427 -259 -124 -37 -215 -118 -243 -219 -6 -24 -10
-487 -10 -1347 0 -720 -5 -1367 -10 -1436 -53 -724 -548 -1293 -1264 -1452
l-101 -22 -4975 0 c-4744 0 -4979 1 -5060 18 -142 30 -308 87 -427 147 -396
202 -703 580 -812 1005 -51 198 -51 182 -51 1642 0 922 -3 1378 -11 1411 -14
67 -65 149 -116 188 -24 18 -83 45 -137 63 -180 57 -311 137 -427 258 -173
179 -261 396 -261 648 -1 176 29 303 109 455 191 367 604 564 1023 489z m5418
-3191 c99 -36 172 -81 242 -151 73 -71 120 -147 157 -252 l28 -80 3 -377 3
-378 -2084 0 c-2287 0 -2132 -4 -2229 60 -51 34 -92 87 -116 152 -15 37 -17
110 -20 551 l-3 507 1973 -2 1973 -3 73 -27z m5512 -461 c0 -424 -2 -501 -16
-547 -28 -96 -87 -161 -189 -210 -26 -13 -316 -15 -2138 -18 l-2109 -2 5 372
c5 411 6 421 71 554 41 83 133 187 211 238 57 39 163 82 230 96 22 4 916 8
1988 9 l1947 1 0 -493z m-10068 -3247 c99 -27 300 -57 431 -66 l107 -6 0 -314
0 -314 -315 0 -315 0 0 360 c0 231 4 360 10 360 5 0 42 -9 82 -20z m10698
-340 l0 -360 -315 0 -315 0 0 313 0 314 153 12 c135 10 337 44 422 70 17 5 36
10 43 10 9 1 12 -77 12 -359z"/>
<path d="M4040 11861 c-89 -29 -165 -96 -203 -180 -34 -72 -31 -188 6 -263 70
-143 233 -210 388 -161 75 24 169 117 193 191 24 73 19 180 -12 244 -30 60
-90 120 -150 150 -50 24 -173 35 -222 19z"/>
<path d="M6580 11861 c-96 -31 -175 -106 -211 -200 -43 -114 -6 -258 88 -340
133 -118 326 -105 446 29 59 66 80 128 75 223 -6 119 -70 217 -176 269 -50 24
-173 35 -222 19z"/>
<path d="M9120 11861 c-96 -31 -175 -105 -209 -195 -44 -118 -17 -241 73 -332
132 -131 333 -125 459 16 59 66 80 128 75 223 -6 119 -70 217 -176 269 -50 24
-173 35 -222 19z"/>
<path d="M11660 11861 c-223 -68 -303 -340 -151 -513 22 -24 63 -57 92 -73 49
-27 63 -30 144 -30 78 0 97 4 141 27 65 34 134 111 157 174 22 62 22 156 0
220 -11 34 -35 67 -77 110 -43 42 -76 66 -110 77 -51 17 -152 21 -196 8z"/>
<path d="M5310 10591 c-96 -31 -175 -106 -211 -200 -43 -114 -6 -258 88 -340
133 -118 326 -105 446 29 59 66 80 128 75 223 -6 119 -70 217 -176 269 -50 24
-173 35 -222 19z"/>
<path d="M7850 10591 c-55 -18 -108 -52 -147 -93 -190 -207 -28 -543 252 -526
89 6 156 39 218 108 59 66 80 128 75 223 -6 119 -70 217 -176 269 -50 24 -173
35 -222 19z"/>
<path d="M10390 10591 c-225 -73 -303 -340 -151 -513 22 -24 63 -57 92 -73 49
-27 63 -30 144 -30 78 0 97 4 141 27 67 35 138 115 159 179 23 69 17 178 -13
241 -30 60 -90 120 -150 150 -50 24 -173 35 -222 19z"/>
<path d="M4040 9321 c-89 -29 -165 -96 -203 -180 -34 -72 -31 -188 6 -263 100
-203 367 -238 520 -68 138 153 88 399 -100 491 -51 25 -174 36 -223 20z"/>
<path d="M6580 9321 c-55 -18 -108 -52 -147 -93 -190 -207 -28 -543 252 -526
89 6 156 39 218 108 59 66 80 128 75 223 -6 119 -70 217 -176 269 -50 24 -173
35 -222 19z"/>
<path d="M9080 9305 c-114 -54 -180 -149 -188 -270 -6 -97 23 -171 92 -241
132 -131 333 -125 459 16 59 66 80 128 75 223 -4 86 -31 148 -89 206 -61 61
-120 85 -214 89 -69 2 -87 -1 -135 -23z"/>
<path d="M11620 9305 c-156 -74 -228 -244 -169 -400 30 -80 104 -154 184 -184
161 -61 351 26 409 188 25 70 19 178 -12 243 -54 110 -151 171 -277 176 -69 2
-87 -1 -135 -23z"/>
</g>
</svg>
