<?xml version="1.0" standalone="no"?>
<!DOCTYPE svg PUBLIC "-//W3C//DTD SVG 20010904//EN"
 "http://www.w3.org/TR/2001/REC-SVG-20010904/DTD/svg10.dtd">
<svg version="1.0" xmlns="http://www.w3.org/2000/svg"
 width="50.000000pt" height="50.000000pt" viewBox="0 0 512.000000 512.000000"
 preserveAspectRatio="xMidYMid meet">

<g transform="translate(0.000000,512.000000) scale(0.100000,-0.100000)"
fill="#000000" stroke="none">
<path d="M1540 4789 c-37 -15 -78 -58 -89 -93 -6 -176-119 -576 -252 -1243
-179 -900 -240 -1220 -235 -1247 8 -44 50 -94 93 -112 24 -11 92 -14 268 -14
l235 0 0 -238 0 -238 -44 -12 c-141 -37 -154 -242 -19 -298 46 -20 400 -20
446 0 135 56 122 261 -19 298 l-44 12 0 238 0 238 140 0 140 0 0 -720 0 -719
-389 -3 c-376 -3 -391 -4 -417 -24 -53 -39 -69 -71 -69 -134 0 -63 16 -95 69
-134 27 -21 31 -21 1206 -21 1175 0 1179 0 1206 21 53 39 69 71 69 134 0 63
-16 95 -69 134 -26 20 -41 21 -417 24 l-389 3 0 719 0 720 535 0 c430 0 542 3
568 14 43 18 85 68 93 112 9 50 -478 2488 -504 2523 -10 14 -31 34 -46 45 -27
21 -35 21 -1034 23 -654 1 -1016 -2 -1032 -8z m1850 -312 c0 -1 92 -463 205
-1027 113 -564 205 -1030 205 -1037 0 -10 -247 -13 -1240 -13 -993 0 -1240 3
-1240 13 0 7 92 473 205 1037 113 564 205 1026 205 1027 0 2 374 3 830 3 457
0 830 -1 830 -3z m-750 -3117 l0 -720 -80 0 -80 0 0 720 0 720 80 0 80 0 0
-720z"/>
</g>
</svg>
