<?xml version="1.0" standalone="no"?>
<!DOCTYPE svg PUBLIC "-//W3C//DTD SVG 20010904//EN"
 "http://www.w3.org/TR/2001/REC-SVG-20010904/DTD/svg10.dtd">
<svg version="1.0" xmlns="http://www.w3.org/2000/svg"
 width="50.000000pt" height="50.000000pt" viewBox="0 0 500.000000 280.000000"
 preserveAspectRatio="xMidYMid meet">

<g transform="translate(0.000000,280.000000) scale(0.100000,-0.100000)"
fill="#000000" stroke="none">
<path d="M3329 2432 c-4 -93 5 -1000 9 -974 1 6 8 12 16 12 8 0 17 4 21 10 10
16 7 984 -4 1012 -5 14 -16 28 -24 31 -12 4 -15 -12 -18 -91z"/>
<path d="M3550 1227 c-21 -17 -26 -103 -7 -110 12 -5 16 7 19 59 2 35 3 64 3
64 0 0 -7 -6 -15 -13z"/>
<path d="M3320 1165 c0 -34 5 -47 20 -55 19 -10 20 -8 20 45 0 48 -2 55 -20
55 -17 0 -20 -7 -20 -45z"/>
<path d="M3444 1052 c-6 -4 -13 -19 -16 -34 -5 -25 -2 -28 21 -28 25 0 27 3
23 35 -4 36 -9 40 -28 27z"/>
<path d="M3698 1013 c29 -2 74 -2 100 0 26 2 2 3 -53 3 -55 0 -76 -1 -47 -3z"/>
<path d="M3910 948 c0 -18 0 -176 0 -350 0 -206 -3 -319 -10 -323 -5 -3 -10
-22 -10 -41 l0 -34 88 5 c48 3 150 10 227 15 170 11 459 28 653 36 l143 7 -3
46 c-2 33 -7 46 -18 45 -9 -1 -15 8 -15 21 0 12 5 21 11 18 6 -2 11 2 11 10 0
9 -7 12 -19 9 -10 -2 -18 1 -18 8 0 7 -7 10 -15 7 -8 -4 -17 -2 -19 2 -3 4
-45 11 -93 15 -94 7 -223 35 -223 49 0 4 -4 5 -10 2 -13 -8 -52 13 -45 24 6
10 -18 21 -46 21 -10 0 -19 5 -19 11 0 6 -6 9 -12 6 -47 -19 -48 -19 -48 -2 0
14 -3 15 -15 5 -10 -9 -15 -9 -15 -1 0 6 -7 11 -15 11 -8 0 -20 10 -26 23 -6
12 -22 31 -34 42 -12 11 -23 25 -24 30 0 6 -8 18 -16 28 -18 21 -20 31 -3 21
7 -5 8 -3 4 5 -5 7 -15 10 -25 6 -12 -5 -13 -3 -4 6 9 9 5 17 -18 36 -16 14
-29 31 -29 38 0 7 -7 16 -16 19 -8 3 -13 10 -9 16 7 11 -49 42 -60 32 -3 -4
-5 -2 -3 3 2 6 -1 11 -7 13 -5 2 -18 11 -27 19 -10 9 -18 13 -18 9 0 -4 -8 -2
-18 3 -10 5 -24 6 -33 1 -12 -7 -25 0 -49 25 -19 19 -38 35 -42 35 -4 0 -8
-15 -8 -32z"/>
<path d="M2083 913 c32 -2 81 -2 110 0 29 2 3 3 -58 3 -60 0 -84 -1 -52 -3z"/>
<path d="M2683 913 c43 -2 110 -2 150 0 40 1 5 3 -78 3 -82 0 -115 -2 -72 -3z"/>
<path d="M3168 913 c134 -2 350 -2 480 0 130 1 21 2 -243 2 -264 0 -371 -1
-237 -2z"/>
<path d="M4225 780 c10 -11 20 -20 23 -20 3 0 -3 9 -13 20 -10 11 -20 20 -23
20 -3 0 3 -9 13 -20z"/>
<path d="M1608 273 c-386 -3 -398 -4 -398 -23 0 -30 -18 -33 -23 -3 -3 24 -4
24 -6 -7 l-1 -35 1254 -2 c1126 -3 1256 -1 1270 13 9 8 16 24 16 35 0 18 -13
19 -410 21 -225 2 -494 3 -597 3 l-188 0 0 -25 c0 -24 -2 -25 -77 -28 l-78 -3
0 31 0 30 -182 -2 c-101 -2 -362 -4 -580 -5z"/>
</g>
</svg>
